<svg width="20" height="20" viewBox="0 0 20 20" xmlns="http://www.w3.org/2000/svg">
<path fill-rule="evenodd" clip-rule="evenodd" d="M9.5548 13.2406C9.41609 13.1755 8.58141 12.3752 7.05598 10.8448L4.76537 8.5469L5.41578 7.8916C5.77345 7.53119 6.13294 7.18772 6.21463 7.12837L6.36314 7.02044L7.63353 8.29108L8.90393 9.56172V4.78084V0H9.9974H11.0909V4.78084V9.56172L12.3665 8.28587L13.642 7.01007L14.4234 7.79081L15.2048 8.5715L12.9265 10.8572C11.4098 12.3788 10.5787 13.1755 10.44 13.2406C10.3254 13.2943 10.1263 13.3383 9.9974 13.3383C9.86852 13.3383 9.66936 13.2943 9.5548 13.2406ZM0.000416727 12.9605C0.000781215 16.0663 0.0152563 16.3089 0.240354 16.9861C0.461182 17.6504 0.752252 18.1038 1.32778 18.6798C2.06858 19.4212 2.80792 19.8063 3.77834 19.9562C4.02427 19.9942 6.08399 20.0071 10.2317 19.9964L16.3239 19.9807L16.6985 19.865C17.5218 19.6107 18.1373 19.2479 18.6799 18.6973C19.2553 18.1134 19.6055 17.5213 19.8461 16.7256C19.9625 16.3409 19.9646 16.2849 19.9822 13.169L20 10.0032H18.8795H17.759L17.7444 13.0647L17.7298 16.1263L17.5639 16.4766C17.3335 16.9636 16.9934 17.3102 16.5135 17.5476L16.121 17.7418H10.0001H3.8792L3.52913 17.5758C3.04264 17.3451 2.69623 17.0049 2.45905 16.5246L2.26504 16.1319L2.2504 13.0675L2.23582 10.0032H1.11789H0L0.000416727 12.9605Z" fill="inherit"/>
</svg>
