<svg width="40" height="40" viewBox="0 0 40 40" fill="none" xmlns="http://www.w3.org/2000/svg">
<g id="Menu">
<circle id="Ellipse 81" cx="20" cy="20" r="20" fill="#110000"/>
<g id="Group 15">
<path id="Vector" d="M11.7917 15.5H29.2083C29.4183 15.5 29.6197 15.4034 29.7681 15.2315C29.9166 15.0596 30 14.8264 30 14.5833C30 14.3402 29.9166 14.107 29.7681 13.9351C29.6197 13.7632 29.4183 13.6666 29.2083 13.6666H11.7917C11.5817 13.6666 11.3803 13.7632 11.2319 13.9351C11.0834 14.107 11 14.3402 11 14.5833C11 14.8264 11.0834 15.0596 11.2319 15.2315C11.3803 15.4034 11.5817 15.5 11.7917 15.5Z" fill="white"/>
<path id="Vector_2" d="M11.7917 20.0833H22.875C23.085 20.0833 23.2863 19.9868 23.4348 19.8148C23.5833 19.6429 23.6667 19.4098 23.6667 19.1667C23.6667 18.9236 23.5833 18.6904 23.4348 18.5185C23.2863 18.3466 23.085 18.25 22.875 18.25H11.7917C11.5817 18.25 11.3803 18.3466 11.2319 18.5185C11.0834 18.6904 11 18.9236 11 19.1667C11 19.4098 11.0834 19.6429 11.2319 19.8148C11.3803 19.9868 11.5817 20.0833 11.7917 20.0833Z" fill="white"/>
<path id="Vector_3" d="M29.2083 22.8334H11.7917C11.5817 22.8334 11.3803 22.93 11.2319 23.1019C11.0834 23.2738 11 23.5069 11 23.75C11 23.9932 11.0834 24.2263 11.2319 24.3982C11.3803 24.5701 11.5817 24.6667 11.7917 24.6667H29.2083C29.4183 24.6667 29.6197 24.5701 29.7681 24.3982C29.9166 24.2263 30 23.9932 30 23.75C30 23.5069 29.9166 23.2738 29.7681 23.1019C29.6197 22.93 29.4183 22.8334 29.2083 22.8334Z" fill="white"/>
</g>
</g>
</svg>
